<?xml version="1.0" encoding="utf-8"?>
<!-- Generator: Adobe Illustrator 16.0.0, SVG Export Plug-In . SVG Version: 6.00 Build 0)  -->
<!DOCTYPE svg PUBLIC "-//W3C//DTD SVG 1.1//EN" "http://www.w3.org/Graphics/SVG/1.1/DTD/svg11.dtd">
<svg version="1.1" id="Layer_1" xmlns="http://www.w3.org/2000/svg" xmlns:xlink="http://www.w3.org/1999/xlink" x="0px" y="0px"
	 width="246px" height="79px" viewBox="0 0 246 79" enable-background="new 0 0 246 79" xml:space="preserve">
<g>
	<path fill="#4F57A6" d="M30.142,17.293c2.847,0,5.672,1.207,7.652,3.552c3.567,4.224,3.035,10.539-1.188,14.106
		c-0.447,0.379-0.924,0.716-1.431,1.01c-0.507,0.295-1.036,0.543-1.586,0.745c-0.551,0.201-1.115,0.353-1.692,0.455
		s-1.159,0.153-1.746,0.152c-2.846,0-5.672-1.207-7.651-3.551c-3.569-4.224-3.035-10.54,1.189-14.106
		c0.447-0.379,0.924-0.716,1.431-1.011c0.506-0.294,1.035-0.543,1.585-0.744c0.551-0.202,1.114-0.354,1.692-0.456
		C28.974,17.344,29.556,17.293,30.142,17.293 M30.143,16.287c-2.596,0-5.118,0.924-7.104,2.6c-0.276,0.232-0.541,0.477-0.793,0.735
		c-0.252,0.258-0.491,0.528-0.716,0.811c-0.225,0.282-0.436,0.574-0.633,0.877c-0.196,0.303-0.377,0.615-0.543,0.935
		c-0.166,0.321-0.315,0.649-0.448,0.984s-0.25,0.677-0.349,1.024c-0.1,0.347-0.182,0.698-0.246,1.053
		c-0.065,0.355-0.112,0.713-0.142,1.072c-0.031,0.36-0.045,0.72-0.041,1.081s0.027,0.721,0.066,1.08
		c0.04,0.358,0.098,0.714,0.173,1.067s0.167,0.702,0.277,1.045c0.11,0.344,0.236,0.682,0.379,1.013
		c0.143,0.331,0.302,0.655,0.477,0.97c0.175,0.316,0.365,0.622,0.571,0.919s0.425,0.583,0.659,0.858
		c0.258,0.306,0.531,0.596,0.82,0.872c0.29,0.276,0.593,0.535,0.911,0.778c0.317,0.243,0.647,0.467,0.989,0.674
		c0.342,0.207,0.695,0.395,1.057,0.563c0.362,0.168,0.733,0.316,1.112,0.444c0.379,0.128,0.763,0.235,1.154,0.321
		c0.39,0.086,0.784,0.15,1.182,0.193c0.397,0.043,0.796,0.064,1.195,0.064c2.595,0,5.119-0.923,7.104-2.6
		c4.64-3.919,5.227-10.883,1.308-15.525c-0.258-0.306-0.531-0.596-0.821-0.872c-0.289-0.276-0.593-0.535-0.91-0.778
		s-0.647-0.467-0.99-0.674c-0.342-0.207-0.694-0.394-1.057-0.563c-0.363-0.168-0.733-0.316-1.112-0.444
		c-0.379-0.128-0.763-0.235-1.154-0.321c-0.39-0.086-0.784-0.15-1.182-0.193S30.542,16.286,30.143,16.287L30.143,16.287"/>
	<path fill="#4F57A6" d="M43.634,51.699c0,0.148-0.003,0.297-0.011,0.445s-0.019,0.297-0.033,0.444
		c-0.014,0.148-0.033,0.296-0.054,0.443c-0.022,0.146-0.047,0.293-0.077,0.439c-0.029,0.146-0.062,0.29-0.098,0.435
		s-0.076,0.288-0.119,0.43c-0.043,0.143-0.09,0.283-0.14,0.424c-0.05,0.14-0.104,0.278-0.16,0.416
		c-0.057,0.138-0.117,0.273-0.181,0.407c-0.064,0.135-0.131,0.268-0.201,0.398c-0.07,0.131-0.144,0.261-0.22,0.389
		c-0.077,0.127-0.156,0.253-0.239,0.376c-0.083,0.124-0.168,0.245-0.257,0.365c-0.088,0.119-0.18,0.236-0.274,0.352
		c-0.094,0.114-0.191,0.228-0.291,0.337c-0.1,0.11-0.203,0.219-0.308,0.323c-0.105,0.105-0.213,0.208-0.323,0.308
		c-0.11,0.1-0.223,0.197-0.337,0.291c-0.115,0.095-0.232,0.187-0.352,0.274c-0.12,0.089-0.241,0.175-0.365,0.257
		c-0.124,0.083-0.249,0.162-0.376,0.239c-0.127,0.076-0.257,0.149-0.388,0.22c-0.131,0.069-0.264,0.137-0.398,0.2
		c-0.134,0.063-0.27,0.124-0.408,0.181c-0.137,0.057-0.276,0.11-0.416,0.16c-0.14,0.051-0.281,0.097-0.423,0.141
		c-0.142,0.043-0.286,0.082-0.43,0.118c-0.145,0.036-0.29,0.069-0.435,0.098c-0.146,0.029-0.292,0.055-0.439,0.077
		c-0.147,0.021-0.294,0.039-0.443,0.054c-0.148,0.015-0.296,0.026-0.444,0.033s-0.297,0.011-0.446,0.011
		c-0.149,0-0.297-0.004-0.446-0.011c-0.149-0.007-0.297-0.019-0.445-0.033s-0.295-0.032-0.443-0.054
		c-0.147-0.022-0.293-0.048-0.439-0.077c-0.146-0.028-0.291-0.062-0.436-0.098c-0.144-0.036-0.287-0.075-0.43-0.118
		c-0.142-0.044-0.283-0.09-0.423-0.141c-0.14-0.05-0.279-0.104-0.416-0.16c-0.138-0.057-0.273-0.117-0.408-0.181
		s-0.267-0.131-0.398-0.2c-0.131-0.07-0.26-0.144-0.388-0.22c-0.127-0.077-0.253-0.156-0.376-0.239
		c-0.124-0.082-0.245-0.168-0.365-0.257c-0.119-0.088-0.236-0.18-0.352-0.274c-0.115-0.094-0.228-0.191-0.337-0.291
		c-0.11-0.1-0.218-0.202-0.323-0.308c-0.105-0.104-0.208-0.213-0.307-0.323c-0.1-0.109-0.197-0.223-0.292-0.337
		c-0.094-0.115-0.186-0.232-0.274-0.352c-0.088-0.12-0.174-0.241-0.257-0.365c-0.083-0.123-0.162-0.249-0.239-0.376
		c-0.076-0.128-0.149-0.258-0.22-0.389c-0.07-0.131-0.137-0.264-0.2-0.398c-0.064-0.134-0.124-0.27-0.181-0.407
		c-0.057-0.138-0.11-0.276-0.161-0.416c-0.05-0.141-0.097-0.281-0.14-0.424c-0.043-0.142-0.083-0.285-0.119-0.43
		s-0.069-0.289-0.098-0.435c-0.029-0.146-0.055-0.293-0.076-0.439c-0.022-0.147-0.04-0.295-0.055-0.443
		c-0.015-0.147-0.025-0.296-0.033-0.444s-0.011-0.297-0.011-0.445c0-0.149,0.004-0.298,0.011-0.446s0.018-0.297,0.033-0.444
		c0.015-0.148,0.033-0.296,0.055-0.443c0.021-0.146,0.047-0.293,0.076-0.439c0.029-0.146,0.062-0.29,0.098-0.435
		s0.076-0.287,0.119-0.43c0.043-0.143,0.09-0.283,0.14-0.424c0.05-0.14,0.104-0.278,0.161-0.416
		c0.057-0.138,0.117-0.273,0.181-0.407c0.063-0.135,0.13-0.268,0.2-0.398c0.07-0.131,0.144-0.261,0.22-0.388
		c0.077-0.128,0.156-0.254,0.239-0.377c0.083-0.124,0.168-0.245,0.257-0.365c0.088-0.119,0.18-0.236,0.274-0.352
		c0.094-0.114,0.191-0.228,0.292-0.337c0.1-0.11,0.202-0.219,0.307-0.323c0.105-0.105,0.213-0.208,0.323-0.308
		c0.11-0.1,0.223-0.197,0.337-0.291c0.115-0.095,0.232-0.187,0.352-0.274c0.12-0.089,0.241-0.175,0.365-0.257
		c0.124-0.083,0.249-0.162,0.376-0.239c0.128-0.076,0.257-0.149,0.388-0.22c0.131-0.069,0.264-0.137,0.398-0.2
		s0.27-0.124,0.408-0.181c0.137-0.057,0.276-0.11,0.416-0.16c0.14-0.051,0.281-0.097,0.423-0.141
		c0.143-0.043,0.286-0.082,0.43-0.118c0.145-0.036,0.29-0.069,0.436-0.098c0.146-0.029,0.292-0.055,0.439-0.076
		c0.147-0.022,0.295-0.04,0.443-0.055s0.296-0.026,0.445-0.033c0.148-0.007,0.297-0.011,0.446-0.011
		c0.148,0,0.297,0.004,0.446,0.011s0.296,0.019,0.444,0.033c0.148,0.015,0.296,0.032,0.443,0.055
		c0.147,0.021,0.293,0.047,0.439,0.076c0.146,0.028,0.291,0.062,0.435,0.098c0.144,0.036,0.288,0.075,0.43,0.118
		c0.142,0.044,0.284,0.09,0.423,0.141c0.14,0.05,0.279,0.104,0.416,0.16c0.138,0.057,0.273,0.117,0.408,0.181
		c0.135,0.063,0.268,0.131,0.398,0.2c0.131,0.07,0.261,0.144,0.388,0.22c0.127,0.077,0.253,0.156,0.376,0.239
		c0.124,0.082,0.245,0.168,0.365,0.257c0.12,0.088,0.236,0.18,0.352,0.274c0.115,0.094,0.228,0.191,0.337,0.291
		c0.11,0.1,0.218,0.202,0.323,0.308c0.105,0.104,0.208,0.213,0.308,0.323c0.1,0.109,0.197,0.223,0.291,0.337
		c0.095,0.115,0.186,0.232,0.274,0.352c0.089,0.12,0.174,0.241,0.257,0.365c0.083,0.123,0.162,0.249,0.239,0.377
		c0.076,0.127,0.149,0.257,0.22,0.388c0.07,0.131,0.137,0.264,0.201,0.398c0.063,0.134,0.124,0.27,0.181,0.407
		c0.057,0.138,0.11,0.276,0.16,0.416c0.05,0.141,0.097,0.281,0.14,0.424c0.043,0.143,0.083,0.285,0.119,0.43
		s0.069,0.289,0.098,0.435c0.029,0.146,0.055,0.293,0.077,0.439c0.021,0.147,0.04,0.295,0.054,0.443
		c0.015,0.147,0.026,0.296,0.033,0.444S43.634,51.55,43.634,51.699"/>
	<path fill="#4F57A6" d="M34.542,41.688c2.847,0,5.673,1.206,7.652,3.551c3.567,4.226,3.036,10.54-1.188,14.107
		c-0.447,0.379-0.924,0.716-1.431,1.011c-0.507,0.294-1.036,0.542-1.586,0.744c-0.551,0.201-1.115,0.353-1.692,0.455
		c-0.577,0.102-1.159,0.152-1.746,0.152c-2.846,0-5.671-1.207-7.651-3.553c-3.568-4.224-3.035-10.538,1.189-14.106
		c0.447-0.379,0.924-0.716,1.431-1.01c0.506-0.295,1.035-0.543,1.585-0.744s1.114-0.354,1.691-0.455S33.956,41.688,34.542,41.688
		 M34.543,40.682c-0.645,0.001-1.285,0.058-1.92,0.17c-0.635,0.113-1.255,0.28-1.861,0.502c-0.605,0.222-1.187,0.494-1.745,0.817
		c-0.558,0.324-1.083,0.693-1.576,1.109c-0.276,0.232-0.541,0.478-0.793,0.736c-0.252,0.258-0.491,0.528-0.716,0.81
		c-0.226,0.282-0.437,0.575-0.633,0.878c-0.196,0.303-0.377,0.614-0.543,0.935c-0.166,0.321-0.315,0.649-0.449,0.984
		c-0.133,0.336-0.25,0.677-0.349,1.024c-0.1,0.347-0.182,0.698-0.247,1.053c-0.064,0.355-0.112,0.713-0.141,1.073
		c-0.032,0.359-0.045,0.72-0.041,1.08c0.004,0.361,0.026,0.721,0.066,1.08c0.04,0.358,0.097,0.714,0.172,1.067
		c0.075,0.353,0.167,0.701,0.277,1.045c0.109,0.344,0.236,0.682,0.379,1.013s0.302,0.655,0.478,0.971
		c0.175,0.315,0.365,0.622,0.57,0.918c0.206,0.297,0.425,0.583,0.659,0.858c0.258,0.306,0.531,0.596,0.82,0.872
		c0.29,0.275,0.593,0.535,0.911,0.777c0.317,0.243,0.647,0.468,0.989,0.674c0.342,0.207,0.695,0.395,1.057,0.563
		c0.363,0.168,0.733,0.315,1.112,0.444c0.379,0.127,0.763,0.234,1.154,0.32c0.39,0.086,0.784,0.15,1.182,0.193
		c0.397,0.043,0.796,0.064,1.195,0.063c2.596,0,5.118-0.923,7.104-2.6c4.639-3.919,5.227-10.884,1.307-15.524
		c-0.258-0.306-0.531-0.596-0.821-0.872c-0.289-0.275-0.593-0.534-0.91-0.777c-0.317-0.242-0.647-0.467-0.99-0.674
		c-0.342-0.207-0.694-0.395-1.057-0.563s-0.733-0.316-1.112-0.444s-0.763-0.234-1.153-0.32c-0.391-0.086-0.784-0.15-1.182-0.193
		C35.341,40.702,34.942,40.682,34.543,40.682L34.543,40.682L34.543,40.682z M4.483,36.765c-0.118,0.122-0.226,0.252-0.337,0.381
		l11.568,13.697c0.145-0.088,0.292-0.173,0.431-0.27c0.139-0.095,0.269-0.198,0.404-0.302L4.85,36.419
		C4.727,36.533,4.601,36.644,4.483,36.765L4.483,36.765L4.483,36.765z M3.324,38.253c-0.094,0.15-0.185,0.303-0.27,0.458
		l10.931,12.948c0.333-0.117,0.657-0.253,0.974-0.407L3.618,37.818C3.517,37.962,3.417,38.104,3.324,38.253L3.324,38.253
		L3.324,38.253z M2.45,40.078c-0.065,0.187-0.127,0.373-0.181,0.565l9.682,11.465c0.198-0.021,0.392-0.051,0.586-0.084
		c0.191-0.033,0.38-0.065,0.566-0.109L2.653,39.539C2.578,39.714,2.515,39.896,2.45,40.078L2.45,40.078L2.45,40.078z M1.965,42.311
		c-0.001,0.017,0,0.034-0.001,0.051c-0.02,0.253-0.026,0.502-0.026,0.751l7.524,8.909c0.244,0.043,0.491,0.078,0.743,0.102
		c0.017,0.001,0.033,0.005,0.049,0.007c0.214,0.018,0.423,0.017,0.633,0.021L2.05,41.685C2.017,41.892,1.983,42.098,1.965,42.311
		L1.965,42.311L1.965,42.311z M2.307,45.626c0.147,0.505,0.338,0.989,0.566,1.453l2.832,3.354c0.422,0.306,0.868,0.572,1.336,0.802
		c0.327,0.159,0.665,0.298,1.013,0.418l-5.989-7.091C2.125,44.924,2.205,45.28,2.307,45.626L2.307,45.626L2.307,45.626z
		 M11.831,34.026c-0.016-0.001-0.031-0.004-0.048-0.006c-0.213-0.017-0.422-0.017-0.633-0.021l8.838,10.466
		c0.033-0.207,0.066-0.416,0.086-0.627l0-0.05c0.02-0.253,0.027-0.501,0.025-0.751l-7.524-8.909
		C12.329,34.084,12.081,34.05,11.831,34.026L11.831,34.026L11.831,34.026z M14.995,34.913c-0.329-0.159-0.666-0.298-1.011-0.418
		l5.989,7.093c-0.06-0.362-0.14-0.719-0.242-1.066c-0.147-0.5-0.336-0.984-0.566-1.451l-2.834-3.356
		C15.909,35.408,15.463,35.141,14.995,34.913L14.995,34.913L14.995,34.913z M9.5,34.125c-0.19,0.032-0.381,0.065-0.567,0.109
		l10.454,12.377c0.074-0.177,0.138-0.359,0.202-0.542c0.064-0.187,0.128-0.372,0.182-0.563L10.088,34.04
		C9.89,34.061,9.695,34.092,9.5,34.125L9.5,34.125L9.5,34.125z M7.553,34.681c-0.16,0.067-0.318,0.141-0.475,0.216l11.343,13.432
		c0.206-0.286,0.394-0.584,0.563-0.893L8.052,34.49C7.883,34.549,7.717,34.613,7.553,34.681L7.553,34.681L7.553,34.681z
		 M5.893,35.575c-0.138,0.095-0.27,0.201-0.403,0.303l11.699,13.854c0.124-0.115,0.249-0.227,0.366-0.348
		c0.118-0.123,0.227-0.252,0.338-0.381L6.325,35.305C6.179,35.394,6.034,35.479,5.893,35.575L5.893,35.575"/>
	<path fill="#4F57A6" d="M11.014,33.064c2.846,0,5.674,1.207,7.653,3.552c3.566,4.224,3.034,10.538-1.189,14.106
		c-0.448,0.379-0.925,0.715-1.432,1.01s-1.035,0.543-1.586,0.745c-0.55,0.201-1.114,0.354-1.692,0.455
		c-0.577,0.103-1.159,0.153-1.745,0.152c-0.363,0.001-0.726-0.019-1.087-0.058s-0.719-0.098-1.074-0.176
		c-0.355-0.077-0.705-0.175-1.049-0.291s-0.681-0.251-1.01-0.403c-0.33-0.153-0.65-0.324-0.961-0.512
		c-0.311-0.188-0.61-0.393-0.899-0.613s-0.564-0.456-0.827-0.707c-0.263-0.25-0.512-0.515-0.746-0.792
		c-3.568-4.224-3.034-10.54,1.189-14.107c0.448-0.378,0.924-0.715,1.431-1.01s1.035-0.542,1.585-0.744
		c0.551-0.201,1.114-0.353,1.691-0.455S10.428,33.064,11.014,33.064 M11.015,32.058c-0.645,0-1.285,0.057-1.92,0.17
		c-0.635,0.113-1.255,0.28-1.861,0.501c-0.605,0.222-1.188,0.495-1.745,0.818c-0.558,0.324-1.083,0.694-1.577,1.11
		c-0.276,0.232-0.541,0.477-0.792,0.735c-0.252,0.258-0.491,0.529-0.716,0.811c-0.226,0.282-0.437,0.574-0.633,0.877
		c-0.196,0.303-0.377,0.615-0.543,0.935C1.061,38.336,0.911,38.665,0.778,39s-0.25,0.677-0.349,1.023
		c-0.1,0.348-0.182,0.698-0.246,1.054c-0.065,0.354-0.112,0.712-0.141,1.072c-0.032,0.359-0.045,0.72-0.041,1.08
		c0.004,0.361,0.026,0.721,0.066,1.08c0.04,0.358,0.097,0.715,0.172,1.067s0.167,0.701,0.277,1.045
		c0.109,0.345,0.236,0.682,0.379,1.014c0.143,0.331,0.302,0.654,0.478,0.97c0.175,0.316,0.365,0.622,0.571,0.919
		c0.205,0.297,0.425,0.583,0.658,0.857c0.258,0.306,0.531,0.597,0.821,0.873c0.289,0.275,0.593,0.534,0.91,0.777
		c0.318,0.243,0.647,0.468,0.99,0.674c0.342,0.207,0.694,0.395,1.057,0.563c0.362,0.169,0.733,0.316,1.112,0.444
		s0.763,0.235,1.154,0.321c0.39,0.086,0.784,0.15,1.182,0.193s0.796,0.064,1.196,0.063c2.595,0,5.118-0.924,7.103-2.6
		c4.641-3.919,5.228-10.884,1.309-15.525c-0.258-0.306-0.531-0.596-0.82-0.872c-0.29-0.276-0.593-0.535-0.911-0.778
		s-0.647-0.467-0.99-0.674c-0.342-0.207-0.694-0.395-1.057-0.563c-0.363-0.168-0.733-0.316-1.112-0.444
		c-0.378-0.128-0.763-0.235-1.153-0.321c-0.391-0.086-0.785-0.15-1.182-0.193C11.813,32.079,11.415,32.058,11.015,32.058
		L11.015,32.058L11.015,32.058z M23.403,21.156c0.057-0.064,0.114-0.128,0.175-0.19c0.045-0.047,0.092-0.094,0.14-0.139
		l11.733,13.896c-0.052,0.04-0.104,0.079-0.158,0.116c-0.072,0.049-0.145,0.094-0.217,0.139L23.403,21.156L23.403,21.156
		L23.403,21.156z M22.24,22.746c0.056-0.096,0.115-0.191,0.173-0.285c0.025-0.041,0.051-0.08,0.077-0.12l11.265,13.339
		c-0.146,0.063-0.292,0.123-0.441,0.179L22.24,22.746L22.24,22.746L22.24,22.746z M21.396,24.713c0.042-0.141,0.09-0.28,0.139-0.419
		l0.028-0.083L31.756,36.28c-0.029,0.005-0.058,0.01-0.086,0.014c-0.145,0.025-0.291,0.047-0.437,0.067L21.396,24.713L21.396,24.713
		L21.396,24.713z M29.325,36.393c-0.215-0.019-0.429-0.048-0.641-0.083l-7.664-9.075c0-0.214,0.008-0.43,0.025-0.647l0.001-0.022
		l8.302,9.832L29.325,36.393L29.325,36.393z M26.049,35.454c-0.423-0.214-0.828-0.459-1.213-0.735l-2.891-3.423
		c-0.208-0.426-0.383-0.865-0.523-1.318L26.049,35.454L26.049,35.454L26.049,35.454z M30.936,18.211
		c0.249,0.024,0.462,0.053,0.667,0.087l7.664,9.076c-0.001,0.215-0.009,0.43-0.025,0.647l-0.001,0.022L30.936,18.211L30.936,18.211
		L30.936,18.211z M34.238,19.154c0.418,0.21,0.826,0.458,1.212,0.734l2.893,3.425c0.207,0.428,0.382,0.87,0.521,1.318L34.238,19.154
		L34.238,19.154L34.238,19.154z M28.53,18.329l0.087-0.014c0.146-0.025,0.29-0.049,0.436-0.067l9.837,11.647
		c-0.042,0.141-0.09,0.279-0.138,0.419c-0.011,0.028-0.02,0.055-0.03,0.083L28.53,18.329L28.53,18.329L28.53,18.329z M26.531,18.928
		c0.145-0.064,0.292-0.124,0.441-0.179l11.074,13.114c-0.081,0.137-0.164,0.272-0.251,0.405L26.531,18.928L26.531,18.928
		L26.531,18.928z M24.835,19.885c0.053-0.04,0.104-0.079,0.159-0.116c0.071-0.049,0.144-0.094,0.217-0.14l11.672,13.821
		c-0.056,0.065-0.116,0.129-0.174,0.191c-0.046,0.047-0.093,0.093-0.141,0.138L24.835,19.885L24.835,19.885"/>
	<path fill="#4F57A6" d="M79.09,54.003c2.519,0,4.622-0.585,6.31-1.751s3.04-2.79,4.057-4.883L85.16,44.84
		c-0.458,1.257-1.188,2.316-2.188,3.174c-1.006,0.856-2.3,1.283-3.881,1.283c-1.981,0-3.557-0.65-4.723-1.949
		s-1.747-3.168-1.747-5.606v-4.42c0-2.412,0.581-4.286,1.747-5.628c1.166-1.336,2.742-2.007,4.723-2.007
		c1.581,0,2.827,0.383,3.738,1.145c0.911,0.767,1.565,1.778,1.97,3.035l4.542-2.412c-0.99-2.167-2.316-3.791-3.977-4.861
		c-1.662-1.07-3.754-1.608-6.272-1.608c-1.848,0-3.515,0.319-5.005,0.964c-1.485,0.644-2.758,1.586-3.818,2.833
		c-1.054,1.246-1.869,2.79-2.428,4.622c-0.564,1.837-0.847,3.935-0.847,6.289c0,2.359,0.282,4.43,0.847,6.213
		c0.559,1.778,1.374,3.275,2.428,4.479c1.06,1.209,2.333,2.113,3.818,2.716C75.575,53.7,77.242,54.003,79.09,54.003L79.09,54.003z
		 M93.679,53.519h5.144V40.66c0-1.156,0.442-1.986,1.326-2.492c0.884-0.511,2.199-0.767,3.94-0.767h1.608V32.54h-1.124
		c-0.831,0-1.565,0.123-2.194,0.362c-0.628,0.24-1.171,0.564-1.629,0.964c-0.453,0.405-0.82,0.863-1.102,1.384
		c-0.282,0.527-0.49,1.065-0.623,1.629h-0.202V32.54h-5.144V53.519L93.679,53.519z M117.752,54.003c1.959,0,3.679-0.346,5.165-1.027
		c1.485-0.682,2.662-1.629,3.519-2.833l-2.773-3.093c-0.645,0.83-1.374,1.512-2.194,2.05c-0.814,0.532-1.869,0.804-3.152,0.804
		c-1.688,0-2.96-0.463-3.817-1.39c-0.857-0.921-1.289-2.151-1.289-3.674v-0.522h13.946V42.63c0-1.448-0.192-2.811-0.581-4.084
		c-0.389-1.272-0.969-2.391-1.746-3.354s-1.768-1.725-2.977-2.29c-1.204-0.564-2.625-0.846-4.26-0.846
		c-1.528,0-2.891,0.261-4.1,0.788c-1.204,0.522-2.221,1.257-3.051,2.21c-0.831,0.948-1.469,2.092-1.912,3.434
		c-0.442,1.342-0.666,2.838-0.666,4.5c0,1.688,0.229,3.21,0.687,4.563c0.453,1.353,1.102,2.508,1.949,3.456
		c0.841,0.953,1.875,1.688,3.094,2.21C114.813,53.742,116.197,54.003,117.752,54.003L117.752,54.003z M117.672,35.916
		c1.342,0,2.364,0.447,3.078,1.347c0.708,0.895,1.065,2.071,1.065,3.515v0.361h-8.605v-0.319c0-1.448,0.405-2.625,1.209-3.535
		S116.309,35.916,117.672,35.916L117.672,35.916z M140.179,54.003c1.955,0,3.68-0.346,5.165-1.027
		c1.484-0.682,2.657-1.629,3.514-2.833l-2.769-3.093c-0.645,0.83-1.374,1.512-2.194,2.05c-0.813,0.532-1.868,0.804-3.151,0.804
		c-1.688,0-2.96-0.463-3.817-1.39c-0.857-0.921-1.289-2.151-1.289-3.674v-0.522h13.945V42.63c0-1.448-0.192-2.811-0.58-4.084
		c-0.39-1.272-0.975-2.391-1.752-3.354c-0.772-0.964-1.768-1.725-2.972-2.29c-1.209-0.564-2.625-0.846-4.259-0.846
		c-1.528,0-2.897,0.261-4.101,0.788c-1.203,0.522-2.226,1.257-3.056,2.21c-0.831,0.948-1.465,2.092-1.906,3.434
		c-0.442,1.342-0.666,2.838-0.666,4.5c0,1.688,0.229,3.21,0.687,4.563c0.453,1.353,1.103,2.508,1.949,3.456
		c0.841,0.953,1.874,1.688,3.094,2.21C137.239,53.742,138.624,54.003,140.179,54.003L140.179,54.003z M140.099,35.916
		c1.342,0,2.364,0.447,3.072,1.347c0.714,0.895,1.064,2.071,1.064,3.515v0.361h-8.599v-0.319c0-1.448,0.405-2.625,1.209-3.535
		S138.73,35.916,140.099,35.916L140.099,35.916z M167.147,50.021v3.498h5.145V23.781h-5.145v12.215h-0.202
		c-0.372-1.203-1.086-2.162-2.13-2.875c-1.043-0.708-2.262-1.064-3.658-1.064c-2.65,0-4.68,0.947-6.085,2.838
		c-1.411,1.885-2.113,4.584-2.113,8.094c0,3.54,0.702,6.256,2.113,8.162c1.405,1.901,3.435,2.854,6.085,2.854
		c1.396,0,2.615-0.361,3.658-1.086c1.044-0.724,1.758-1.688,2.13-2.896H167.147L167.147,50.021z M162.808,49.738
		c-1.341,0-2.422-0.441-3.235-1.326c-0.82-0.884-1.226-2.076-1.226-3.572v-3.621c0-1.496,0.405-2.699,1.226-3.594
		c0.813-0.9,1.895-1.347,3.235-1.347c1.23,0,2.265,0.309,3.095,0.926c0.83,0.612,1.245,1.433,1.245,2.449v6.672
		c0,1.097-0.415,1.943-1.245,2.529C165.072,49.445,164.038,49.738,162.808,49.738L162.808,49.738z M195.922,53.519h5.506
		l-9.323-28.05h-6.592l-9.404,28.05h5.385l2.209-7.156h9.967L195.922,53.519L195.922,53.519z M188.771,30.288l3.615,11.539h-7.396
		l3.579-11.539H188.771L188.771,30.288z M210.39,53.519h2.773v-4.1h-2.773V23.781h-5.145v24.674c0,1.608,0.417,2.854,1.247,3.738
		S208.622,53.519,210.39,53.519L210.39,53.519z M221.928,53.519h2.768v-4.1h-2.768V23.781h-5.148v24.674
		c0,1.608,0.415,2.854,1.245,3.738S220.154,53.519,221.928,53.519L221.928,53.519z M241.176,32.54l-3.657,11.091l-1.449,5.309
		h-0.239l-1.363-5.309L230.81,32.54h-5.106l7.518,21.985l-0.97,2.934h-3.775v4.1h3.095c0.858,0,1.608-0.085,2.252-0.244
		c0.645-0.16,1.192-0.416,1.646-0.762c0.458-0.352,0.852-0.799,1.188-1.348c0.336-0.548,0.633-1.197,0.906-1.948L246,32.54H241.176"
		/>
</g>
</svg>
